<svg aria-hidden="true" style="position:absolute;width:0;height:0;overflow:hidden" xmlns="http://www.w3.org/2000/svg">
  <defs>
    <symbol id="icon-cbre" viewBox="0 0 130 32">
      <path d="M58.884 15.478c4.094-1.351 4.836-4.767 4.827-7.55C63.703 3.679 60.685.003 51.752.003L35.078 0v31.934h16.631c8.987 0 12.293-4.586 12.293-9.18 0-5.563-5.118-7.276-5.118-7.276zM42.99 6.947l11.267.008c1.267.223 2.19 1.294 2.19 2.551 0 1.286-.989 2.496-2.295 2.673l-11.154.017-.008-5.249zm10.686 17.545H42.99v-5.347l10.973.003c1.362.156 2.394 1.282 2.394 2.619 0 1.457-1.221 2.702-2.681 2.725zM101.339.004h28.177l-.016 6.97h-20.332l.019 5.147h18.33v7.006h-18.33v5.57h20.335L129.518 32h-28.18V.004zM84.95.046H67.911V31.99h7.825V19.066l8.617-.01c2.468.038 4.387 2.047 4.387 4.525v8.381l7.659-.003-.015-10.31c0-4.776-4.641-6.187-4.641-6.187s4.745-1.412 4.745-7.058c0-6.908-5.973-8.359-11.537-8.359zm4.271 9.911c-.141 1.05-1.197 2.189-2.516 2.189l-10.997.004V7.035H86.71c1.313 0 2.343.962 2.51 2.225v.697zM30.003 24.271c-.113.003-10.696.206-14.349-.148-5.885-.573-7.969-4.906-7.969-8.442 0-4.409 3.024-7.654 7.709-8.264 2.229-.29 14.416-.153 14.545-.152l.256.003.026-7.264-.259.001L16.168.03c-1.536.093-4.082.247-6.689 1.307a16.341 16.341 0 0 0-6.312 5.072A15.808 15.808 0 0 0-.001 15.93c0 1.086.086 2.165.263 3.199.993 4.843 4.187 8.851 8.767 11.007 1.547.676 3.932 1.488 8.742 1.756l2.591.054 9.87.01.027-7.688-.257.003z"/>
    </symbol>
    <symbol id="icon-drib-point" viewBox="0 0 128 32">
      <path d="M32 16c0 8.837-7.163 16-16 16S0 24.837 0 16 7.163 0 16 0s16 7.163 16 16zM80 16c0 8.837-7.163 16-16 16s-16-7.163-16-16S55.163 0 64 0s16 7.163 16 16zM128 16c0 8.837-7.163 16-16 16s-16-7.163-16-16 7.163-16 16-16 16 7.163 16 16z"/>
    </symbol>
    <symbol id="icon-epio" viewBox="0 0 76 32">
      <path d="M21.531 15.557c-1.528 4.65-5.266 7.27-10.319 7.27C4.927 22.827 0 17.84 0 11.456 0 5.158 4.926 0 10.999 0c5.648 0 11.084 4.65 11.042 12.385H3.652c.467 4.524 3.949 7.187 7.559 7.187 3.1 0 5.308-1.48 6.498-4.016h3.822zm-3.482-6.384c-.892-3.551-3.865-5.918-7.05-5.918-3.015 0-6.2 2.199-7.134 5.918h14.184zm16.69 13.654c-3.143 0-5.861-1.691-7.432-3.804V32h-3.61V.55h3.482v3.466C28.708 1.819 31.51 0 34.738 0c6.285 0 10.914 5.115 10.914 11.372 0 6.341-4.629 11.455-10.914 11.455zm0-19.529c-4.035 0-7.432 3.636-7.432 8.074 0 4.48 3.397 8.158 7.432 8.158 4.077 0 7.304-3.678 7.304-8.158 0-4.438-3.228-8.074-7.304-8.074zM47.224.55h3.61v21.77h-3.61V.55zm5.222 10.919c0-6.353 5.18-11.462 11.739-11.462s11.74 5.11 11.74 11.462c0 6.353-5.229 11.369-11.74 11.369s-11.739-5.017-11.739-11.37zm12.73-7.994c-5.976-.52-9.299 4.008-9.299 9.284 0 5.275 4.368 9.552 9.754 9.552a9.857 9.857 0 0 0 5.639-1.758l-1.352-3.427c1.397-1.449 2.204-3.451 2.204-5.663 0-4.372-3.067-7.627-6.946-7.99z"/>
    </symbol>
    <symbol id="icon-f" viewBox="0 0 32 32">
      <path d="M30.601 0H.382a.384.384 0 0 0-.376.314.379.379 0 0 0 .244.425l27.333 8.949c.031.01.065.009.096-.003s.056-.035.071-.064l4.079-7.566A1.388 1.388 0 0 0 31.29.181a1.396 1.396 0 0 0-.688-.182zM.007 31.633a.367.367 0 0 0 .279.358.37.37 0 0 0 .415-.183l5.258-9.74a1.395 1.395 0 0 1 1.227-.732H20.6a1.397 1.397 0 0 0 1.228-.732l4.008-7.432c.009-.017.014-.036.013-.055s-.006-.038-.016-.055c-.01-.016-.024-.03-.04-.04s-.036-.014-.055-.014H1.403a1.397 1.397 0 0 0-1.394 1.394v17.23z"/>
    </symbol>
    <symbol id="icon-fresh" viewBox="0 0 32 32">
      <path d="M29.696 0H15.465C6.924 0 0 5.947 0 14.488v10.04C6.234 11.784 21.387 2.829 29.696 0z"/>
      <path d="M1.525 32h12.612c8.541 0 15.465-6.924 15.465-15.465V.739C16.435 8.05 7.425 19.43 1.525 32z"/>
    </symbol>
    <symbol id="icon-linkdin" viewBox="0 0 32 32">
      <path fill="#0077b5" style="fill:var(--color1, #0077b5)" d="M29.6 0H2.4C1.12 0 0 .965 0 2.251v27.498C0 31.035 1.12 32 2.4 32h27.2c1.28 0 2.4-.965 2.4-2.251V2.251C32 1.125 30.88 0 29.6 0zM9.44 27.497h-4.8V12.221h4.8v15.276zM7.04 9.97c-1.6 0-2.72-1.286-2.72-2.734S5.6 4.502 7.04 4.502c1.44 0 2.72 1.286 2.72 2.734.16 1.608-1.12 2.734-2.72 2.734zM27.2 27.497h-4.8V20.1c0-1.769 0-4.02-2.4-4.02s-2.88 1.93-2.88 4.02v7.558h-4.8V12.382h4.48v2.091c.64-1.286 2.24-2.412 4.48-2.412 4.8 0 5.76 3.216 5.76 7.236v8.201h.16z"/>
    </symbol>
    <symbol id="icon-m" viewBox="0 0 64 32">
      <path d="M44.576 10.459c.235 0 .466-.015.693-.045l8.852 12.876a5.23 5.23 0 1 0 1.992-1.389L47.615 9.486a5.23 5.23 0 1 0-5.923.106l-8.42 12.212a5.236 5.236 0 0 0-3.087-.063L21.809 9.592a5.23 5.23 0 1 0-5.94-.118L7.256 21.948a5.23 5.23 0 1 0 2.013 1.502l8.963-13.037a5.28 5.28 0 0 0 1.158.025l8.671 12.504a5.23 5.23 0 1 0 7.277.144l8.771-12.649c.153.014.309.02.466.02z"/>
    </symbol>
    <symbol id="icon-mom" viewBox="0 0 197 32">
      <path d="M10.194 11.141c0-.422-.143-.786-.43-1.092a1.408 1.408 0 0 0-1.067-.459c-1.338 0-2.729 1.425-4.173 4.274-1.337 2.575-2.007 4.621-2.007 6.14 0 1.372.467 2.058 1.401 2.058 1.316 0 2.633-1.33 3.95-3.988a29.106 29.106 0 0 0 2.103-5.76c.148-.591.223-.981.223-1.171zm3.854 7.976v.064a.248.248 0 0 0-.032.094c-.445 1.076-1.03 1.994-1.752 2.754-.913.929-1.869 1.393-2.867 1.393-1.147 0-1.72-.685-1.72-2.057 0-.358.031-.707.095-1.045-1.422 2.068-2.972 3.102-4.651 3.102-.998 0-1.783-.39-2.357-1.171C.255 21.575 0 20.721 0 19.687c0-2.11.924-4.441 2.771-6.995 1.975-2.701 3.982-4.051 6.021-4.051.871 0 1.603.38 2.198 1.14.169-.633.51-.95 1.02-.95.977 0 1.465.17 1.465.507 0 .064-.244.823-.733 2.278-1.891 5.634-2.835 8.874-2.835 9.718 0 .401.148.601.446.601.594 0 1.279-.538 2.054-1.614s1.173-1.614 1.195-1.614c.297 0 .446.138.446.412zM30.23 6.456c0-1.772-.43-3.043-1.289-3.813-.861-.77-2.162-1.145-3.903-1.124-1.359 0-2.039.296-2.039.886v9.02c.786.127 1.359.19 1.72.19 3.695-.02 5.532-1.74 5.511-5.159zm3.759 0c0 4.221-2.879 6.33-8.633 6.33-.744 0-1.529-.041-2.357-.126v5.634c0 1.983.351 3.123 1.051 3.419.042.021.499.158 1.37.412.509.126.753.296.733.506-.021.254-.192.38-.51.38h-8.664c-.318 0-.488-.126-.509-.38-.021-.21.223-.379.733-.506.87-.254 1.327-.391 1.37-.412.701-.296 1.051-1.435 1.051-3.419V5.317c0-1.984-.35-3.123-1.051-3.419-.043-.021-.499-.159-1.37-.412-.51-.126-.754-.295-.733-.507.021-.254.191-.379.509-.379h9.334c2.209 0 3.992.454 5.351 1.361 1.55 1.012 2.326 2.511 2.326 4.494zM41.876 22.631c-.022.254-.192.38-.51.38h-6.88c-.319 0-.489-.126-.51-.38-.021-.168.223-.317.733-.443.658-.147 1.115-.305 1.37-.474s.393-.633.414-1.393V3.704c0-.569-.053-.944-.16-1.124s-.425-.269-.955-.269c-.808 0-1.211-.127-1.211-.38 0-.274.255-.464.764-.57A24.67 24.67 0 0 0 38.563.317c.148-.043.266-.064.35-.064.212 0 .34.122.382.364s.064.755.064 1.535v16.142c0 2.132.138 3.271.414 3.419.149.085.606.221 1.37.412.51.148.753.316.733.506zM51.273 18.784v-3.528c-1.572.294-2.75.651-3.535 1.071-1.274.715-1.911 1.701-1.911 2.961 0 .672.196 1.213.589 1.622s.929.614 1.609.614c.849 0 1.603-.263 2.262-.787s.987-1.176.987-1.953zm5.829 2.043c-.573 1.625-1.571 2.437-2.994 2.437-1.529 0-2.464-.769-2.803-2.311-1.615 1.541-3.25 2.311-4.906 2.311-1.062 0-1.901-.305-2.516-.915s-.924-1.442-.924-2.495c0-1.916 1.04-3.347 3.122-4.295 1.189-.526 2.92-.937 5.192-1.231.064-2-.096-3.294-.478-3.884-.318-.526-1.04-.778-2.166-.758-.935.021-1.551.317-1.848.887l-.445 1.582c-.212.57-.669.855-1.37.855-.935 0-1.401-.401-1.401-1.203 0-1.033.647-1.835 1.942-2.405.998-.422 2.124-.633 3.377-.633 3.441.021 5.161 1.2 5.161 3.537v7.798c0 1.137.318 1.695.955 1.673.425 0 .78-.226 1.067-.68.287-.453.494-.68.622-.68.127 0 .239.047.334.142s.122.185.079.269zM69.601 20.838c-1.381 1.787-3.079 2.679-5.096 2.679-2.103 0-3.78-.665-5.033-1.998-1.253-1.332-1.879-3.066-1.879-5.202s.696-3.933 2.087-5.392c1.39-1.458 3.158-2.178 5.303-2.157.977 0 1.933.211 2.868.633 1.168.528 1.751 1.223 1.751 2.089 0 .822-.425 1.234-1.274 1.234-.51 0-.908-.242-1.195-.728s-.557-.97-.812-1.456c-.382-.506-.914-.759-1.593-.759-1.402 0-2.463.677-3.185 2.03-.552 1.08-.828 2.391-.828 3.935 0 1.692.339 3.121 1.02 4.284.807 1.439 1.985 2.158 3.535 2.158.892 0 1.742-.32 2.548-.96.169-.15.69-.694 1.561-1.633.106-.107.202-.16.286-.16.192 0 .287.16.287.478s-.117.628-.351.926zM81.094 13.511c-.128-2.508-1.136-3.751-3.026-3.731-2.038.021-3.26 1.477-3.664 4.368h3.982c1.827 0 2.729-.213 2.708-.638zm3.026 1.333c0 .233-.117.37-.351.412h-9.492c-.021.296-.032.518-.032.665 0 1.731.318 3.133.955 4.21.807 1.329 2.017 1.994 3.632 1.994 1.061 0 1.964-.232 2.707-.696.382-.254.944-.77 1.688-1.551a.395.395 0 0 1 .286-.126c.276 0 .415.126.415.38a.56.56 0 0 1-.096.284c-1.211 2.047-3.122 3.06-5.734 3.039-2.082-.022-3.759-.691-5.033-2.01s-1.911-3.002-1.911-5.049c0-2.11.626-3.893 1.879-5.349 1.338-1.54 3.048-2.3 5.129-2.278 1.592 0 2.92.474 3.982 1.424 1.295 1.139 1.953 2.69 1.975 4.652zM102.787 2.058c0 .316-.111.596-.335.839s-.494.364-.813.364c-.509 0-.913-.369-1.21-1.108s-.69-1.108-1.178-1.108c-1.105 0-1.976.646-2.613 1.938-.233.445-.605 1.557-1.115 3.337l-.859 2.987h3.153c.276 0 .415.131.415.391 0 .435-.234.653-.702.653h-3.12L91.224 22.28c-.744 2.777-1.476 4.829-2.198 6.154C87.708 30.811 86.063 32 84.087 32c-.743 0-1.401-.211-1.975-.633s-.86-.982-.86-1.678c0-.949.43-1.424 1.289-1.424.588 0 .955.232 1.101.696.042.168.063.622.063 1.361 0 .485.224.728.671.728.896 0 1.685-.801 2.367-2.402.299-.695.672-1.886 1.119-3.571l3.903-14.727h-3.313c-.191 0-.287-.12-.287-.359 0-.457.202-.685.606-.685h3.185c.848-2.722 1.677-4.716 2.483-5.982C95.82 1.108 97.529 0 99.568 0c.744 0 1.433.159 2.07.474.765.38 1.147.908 1.147 1.583zM105.847 12.186c0-1.731-.584-2.596-1.752-2.596-1.338 0-2.57 1.404-3.694 4.21-.957 2.385-1.434 4.379-1.434 5.982 0 1.836.626 2.754 1.88 2.754 1.316 0 2.527-1.424 3.631-4.273.913-2.405 1.37-4.431 1.37-6.077zm2.325 1.678c0 2.195-.657 4.273-1.975 6.235-1.486 2.215-3.281 3.324-5.384 3.324-1.38 0-2.442-.549-3.185-1.647-.68-.949-1.02-2.13-1.02-3.545 0-2.173.669-4.261 2.007-6.266 1.508-2.237 3.302-3.355 5.383-3.355 1.381 0 2.442.549 3.186 1.645.658.972.987 2.174.987 3.609zM121.071 10.35c0 .38-.111.728-.335 1.045-.222.316-.515.474-.876.474s-.637-.221-.828-.665c-.192-.443-.446-.665-.764-.665-1.169 0-3.08 4.157-5.734 12.47h-2.485c.637-2.131 1.274-4.273 1.911-6.425.998-3.397 1.497-5.307 1.497-5.729 0-.358-.159-.538-.477-.538-.573 0-1.115.348-1.625 1.045-.169.212-.509.791-1.018 1.741-.128.253-.308.38-.542.38-.319 0-.478-.127-.478-.38l.031-.127c.276-1.054.818-2.014 1.625-2.88.912-.95 1.879-1.424 2.898-1.424 1.125 0 1.688.644 1.688 1.931 0 .401-.074.898-.222 1.487a55.55 55.55 0 0 0-.415 1.488c1.614-3.27 3.133-4.906 4.555-4.906.468 0 .85.164 1.148.491s.446.722.446 1.186zM150.153 22.631c-.02.253-.191.38-.509.38h-8.41c-.319 0-.489-.127-.509-.38-.022-.21.223-.379.732-.506.87-.253 1.327-.391 1.37-.412.701-.295 1.051-1.434 1.051-3.419V3.355l-8.219 19.244c-.189.443-.339.664-.445.664s-.285-.284-.541-.854l-7.072-16.143c-.382-.865-.765-1.593-1.147-2.184l.192 14.212c.021 1.013.064 1.699.128 2.058.148.695.457 1.15.924 1.361.042.021.499.158 1.369.412.509.127.754.296.733.506-.022.253-.191.38-.511.38h-6.816c-.318 0-.489-.127-.509-.38-.022-.21.222-.379.733-.506.87-.253 1.327-.391 1.37-.412.466-.21.775-.686.923-1.425.085-.358.128-1.023.128-1.994l.159-15.573c-.34-.273-.839-.548-1.497-.823a24.305 24.305 0 0 1-1.37-.412c-.51-.127-.754-.295-.733-.507.02-.254.191-.379.509-.379h3.822c1.444.022 2.272.09 2.485.206.211.117.531.67.956 1.662l6.785 15.794 7.327-17.187c.127-.317.413-.475.859-.475h5.225c.319 0 .489.126.509.379.02.212-.223.38-.732.507-.872.254-1.327.391-1.37.412-.701.296-1.052 1.436-1.052 3.419v12.977c0 1.984.351 3.123 1.052 3.419.042.021.498.158 1.37.412.509.127.753.296.732.506zM162.322 16.158c0-1.756-.288-3.194-.861-4.316-.742-1.459-1.901-2.188-3.471-2.188-1.572 0-2.729.751-3.471 2.253-.573 1.121-.86 2.548-.86 4.283 0 1.692.287 3.099.86 4.219.764 1.439 1.921 2.158 3.471 2.158 1.571 0 2.729-.719 3.471-2.158.573-1.121.861-2.538.861-4.252zm3.057-.19c0 2.157-.7 3.954-2.102 5.393s-3.186 2.157-5.352 2.157-3.918-.677-5.254-2.03c-1.34-1.354-2.008-3.119-2.008-5.297 0-2.157.701-3.934 2.103-5.33 1.4-1.396 3.186-2.092 5.352-2.092 2.058 0 3.785.687 5.176 2.061 1.39 1.374 2.085 3.087 2.085 5.138zM192.87 22.632c-.022.253-.192.379-.511.379h-6.88c-.319 0-.489-.126-.509-.379-.02-.168.223-.316.732-.443.658-.147 1.12-.309 1.386-.488.265-.179.398-1.311.398-3.395v-4.104c0-1.285-.159-2.221-.477-2.811-.425-.8-1.243-1.2-2.454-1.2-1.019 0-1.891.311-2.611.932-.723.621-1.083 1.384-1.083 2.289v4.893c.02 1.263.031 1.957.031 2.084.044.758.17 1.2.383 1.326.211.127.669.274 1.37.442.509.126.753.284.733.474-.022.253-.192.379-.509.379h-6.881c-.319 0-.489-.126-.509-.379-.022-.168.223-.316.732-.443.658-.147 1.119-.309 1.386-.488.265-.179.398-1.311.398-3.395v-4.104c0-1.285-.159-2.221-.479-2.811-.424-.8-1.242-1.2-2.452-1.2-1.02 0-1.889.311-2.611.932s-1.083 1.384-1.083 2.289v4.893c0 2.126.137 3.263.413 3.41.148.084.604.221 1.37.41.509.147.754.316.733.505-.023.253-.192.379-.509.379h-6.881c-.319 0-.489-.126-.509-.38-.022-.168.233-.305.763-.412.659-.126 1.116-.3 1.371-.522s.383-1.356.383-3.403v-6.045c0-.57-.052-.944-.16-1.124-.106-.179-.425-.269-.956-.269-.806 0-1.21-.126-1.21-.379 0-.274.253-.465.763-.57a24.29 24.29 0 0 0 3.626-1.045c.192-.042.319-.063.383-.063.191 0 .307.138.351.412.019.19.041.728.063 1.614.466-.602 1.149-1.09 2.052-1.464a7.196 7.196 0 0 1 2.783-.562c2.207 0 3.585.813 4.137 2.438 1.272-1.625 3.053-2.438 5.344-2.438 1.74 0 2.938.474 3.596 1.422.721 1.032 1.08 2.653 1.08 4.863v3.222c0 1.2.012 1.895.032 2.084.044.759.17 1.2.383 1.327s.669.274 1.371.442c.508.126.753.284.732.474zM195.718 21.203a.735.735 0 0 0-.26-.036h-.109v.493h.175c.104 0 .184-.021.243-.063s.088-.108.088-.201c0-.092-.046-.157-.138-.193zm-.815 1.364v-1.698l.475.001.353.003c.134.01.247.039.337.088.152.083.228.218.228.405 0 .143-.04.246-.12.309a.55.55 0 0 1-.296.114.571.571 0 0 1 .242.098c.101.081.151.208.151.381v.151a.289.289 0 0 0 .017.1l.015.048h-.428a1.252 1.252 0 0 1-.028-.235.732.732 0 0 0-.028-.207.206.206 0 0 0-.125-.125.488.488 0 0 0-.152-.027l-.099-.006h-.095v.601h-.447zm-.23-1.74a1.22 1.22 0 0 0-.369.887c0 .355.125.656.375.904.248.248.548.372.9.372.349 0 .649-.125.897-.374.248-.251.372-.552.372-.902a1.22 1.22 0 0 0-.371-.887 1.213 1.213 0 0 0-.899-.382c-.355 0-.657.128-.906.382zm1.985 1.987c-.3.288-.659.432-1.079.432-.434 0-.799-.147-1.097-.443a1.475 1.475 0 0 1-.445-1.089c0-.448.161-.82.481-1.116a1.517 1.517 0 0 1 1.061-.416c.425 0 .788.15 1.089.449s.452.66.452 1.082c0 .435-.154.801-.462 1.099z"/>
    </symbol>
    <symbol id="icon-motion" viewBox="0 0 32 32">
      <path stroke-width="2" d="M31 16c0 8.284-6.716 15-15 15S1 24.284 1 16C1 7.716 7.716 1 16 1s15 6.716 15 15z"/>
      <path d="m21 16-7.5 4.33v-8.66L21 16z"/>
    </symbol>
    <symbol id="icon-one" viewBox="0 0 45 32">
      <path d="M11.758.29c1.956 0 3.641.451 5.056 1.354 1.444.903 2.633 2.122 3.566 3.656.933 1.505 1.625 3.19 2.076 5.056.481 1.866.722 3.777.722 5.733a23.23 23.23 0 0 1-.722 5.733c-.451 1.866-1.144 3.566-2.076 5.101-.933 1.505-2.122 2.708-3.566 3.611-1.414.903-3.1 1.354-5.056 1.354-1.926 0-3.611-.451-5.056-1.354s-2.633-2.106-3.566-3.611c-.933-1.535-1.64-3.235-2.122-5.101a24.693 24.693 0 0 1-.677-5.733c0-1.956.226-3.867.677-5.733C1.495 8.49 2.203 6.805 3.136 5.3c.933-1.535 2.122-2.753 3.566-3.656S9.832.29 11.758.29zm0 3.972c-1.234 0-2.332.346-3.295 1.038-.933.662-1.715 1.565-2.347 2.708-.632 1.113-1.113 2.377-1.444 3.792-.331 1.384-.497 2.814-.497 4.288s.165 2.919.497 4.333a15.028 15.028 0 0 0 1.444 3.792c.632 1.113 1.414 2.016 2.347 2.708.963.662 2.061.993 3.295.993s2.317-.331 3.25-.993c.963-.692 1.76-1.595 2.392-2.708a14.999 14.999 0 0 0 1.444-3.792c.331-1.414.497-2.859.497-4.333s-.166-2.904-.497-4.288c-.331-1.414-.812-2.678-1.444-3.792-.632-1.143-1.429-2.046-2.392-2.708-.933-.692-2.016-1.038-3.25-1.038zm33.539 23.337v3.611H28.912v-3.611h6.003V7.918c-.903.782-1.836 1.324-2.799 1.625s-1.926.542-2.889.722V6.383c1.745-.451 3.265-1.189 4.559-2.212S36.148 2.08 36.991.966h1.986v26.632h6.319z"/>
    </symbol>
    <symbol id="icon-photo" viewBox="0 0 38 32">
      <path d="M35.351 6.205h-3.47l-.797-3.596A3.312 3.312 0 0 0 27.829 0H15.782a3.312 3.312 0 0 0-3.255 2.609l-.797 3.596h-.823V4.671c0-.865-.705-1.568-1.571-1.568H4.257c-.866 0-1.571.704-1.571 1.568v1.534h-.111A2.575 2.575 0 0 0 0 8.775v17.408a2.575 2.575 0 0 0 2.575 2.57h11.94c2.102 1.359 4.605 2.149 7.291 2.149s5.189-.79 7.291-2.149h6.255a2.575 2.575 0 0 0 2.575-2.57V8.775a2.575 2.575 0 0 0-2.575-2.57zM13.974 2.929a1.841 1.841 0 0 1 1.809-1.45H27.83c.876 0 1.619.596 1.809 1.45l.726 3.277h-1.268c-2.102-1.359-4.605-2.149-7.291-2.149s-5.189.79-7.291 2.149h-1.268l.726-3.277zM4.167 4.671a.09.09 0 0 1 .089-.089h5.079a.09.09 0 0 1 .089.089v1.534H4.166V4.671zm1.782 22.603v-8.032a.74.74 0 0 0-1.482 0v8.032H2.575c-.603 0-1.093-.49-1.093-1.091V8.775c0-.602.49-1.091 1.093-1.091h10.047C10 10.135 8.359 13.619 8.359 17.479s1.641 7.344 4.263 9.795H5.949zm22.696 0a11.924 11.924 0 0 1-6.839 2.149 11.945 11.945 0 0 1-6.839-2.149c-3.096-2.161-5.126-5.746-5.126-9.795s2.03-7.634 5.126-9.795a11.924 11.924 0 0 1 6.839-2.149c1.384 0 2.714.237 3.952.67 1.034.362 2.004.863 2.887 1.479 3.096 2.161 5.126 5.746 5.126 9.795s-2.029 7.634-5.126 9.795zm7.799-1.091c0 .602-.49 1.091-1.093 1.091h-4.362c2.622-2.451 4.263-5.935 4.263-9.795s-1.641-7.344-4.263-9.795h4.362c.603 0 1.093.49 1.093 1.091v17.407z"/>
      <path d="M21.772 8.428c-5.035 0-9.13 4.096-9.13 9.13s4.096 9.13 9.13 9.13c.733 0 1.464-.087 2.17-.26a.695.695 0 0 0-.329-1.351 7.78 7.78 0 0 1-1.841.22c-4.268 0-7.739-3.472-7.739-7.739s3.472-7.739 7.739-7.739c4.268 0 7.739 3.472 7.739 7.739a7.7 7.7 0 0 1-1.328 4.337.696.696 0 0 0 1.151.781 9.083 9.083 0 0 0 1.568-5.117c0-5.035-4.096-9.13-9.13-9.13zM5.619 9.833c-1.549 0-2.809 1.26-2.809 2.809s1.26 2.809 2.809 2.809 2.809-1.26 2.809-2.809a2.812 2.812 0 0 0-2.809-2.809zm0 4.11a1.301 1.301 0 0 1 0-2.6 1.301 1.301 0 0 1 0 2.6z"/>
      <path d="M28.08 24.444c-.009-.044-.023-.088-.04-.131s-.039-.083-.065-.121a.69.69 0 0 0-.447-.3.707.707 0 0 0-.634.193.782.782 0 0 0-.152.228.682.682 0 0 0-.04.406.735.735 0 0 0 .105.252.69.69 0 0 0 .446.299.708.708 0 0 0 .406-.04.753.753 0 0 0 .229-.152.706.706 0 0 0 .192-.634z"/>
    </symbol>
    <symbol id="icon-product" viewBox="0 0 26 32">
      <path d="M24.12 23.111h-9.932v7.111h9.932v-7.111zm0-21.333h-9.932V16h9.932V1.778zM8.513 16H1.419v14.222h7.094V16zm0-14.222H1.419v7.111h7.094V1.778zM14.188 0c-.784 0-1.419.796-1.419 1.778V16c0 .982.635 1.778 1.419 1.778h9.932c.784 0 1.419-.796 1.419-1.778V1.778C25.539.796 24.904 0 24.12 0h-9.932zm0 21.333c-.784 0-1.419.796-1.419 1.778v7.111c0 .982.635 1.778 1.419 1.778h9.932c.784 0 1.419-.796 1.419-1.778v-7.111c0-.982-.635-1.778-1.419-1.778h-9.932zM0 16c0-.982.635-1.778 1.419-1.778h7.094c.784 0 1.419.796 1.419 1.778v14.222c0 .982-.635 1.778-1.419 1.778H1.419C.635 32 0 31.204 0 30.222V16zM1.419 0C.635 0 0 .796 0 1.778v7.111c0 .982.635 1.778 1.419 1.778h7.094c.784 0 1.419-.796 1.419-1.778V1.778C9.932.796 9.297 0 8.513 0H1.419z"/>
    </symbol>
    <symbol id="icon-soc-drib" viewBox="0 0 32 32">
      <path d="M16 32C7.178 32 0 24.822 0 16S7.178 0 16 0s16 7.178 16 16-7.178 16-16 16zm13.494-13.81c-.468-.148-4.23-1.27-8.513-.584 1.788 4.912 2.515 8.913 2.655 9.744a13.689 13.689 0 0 0 5.858-9.16zm-8.156 10.411c-.203-1.199-.997-5.378-2.916-10.364l-.09.03c-7.708 2.686-10.476 8.032-10.721 8.535A13.645 13.645 0 0 0 21.338 28.6zM5.847 25.159c.31-.53 4.06-6.74 11.109-9.019.178-.058.358-.112.538-.162a45.83 45.83 0 0 0-1.108-2.319C9.561 15.702 2.938 15.616 2.34 15.604a13.615 13.615 0 0 0 3.506 9.556zM2.622 13.222c.611.008 6.242.033 12.634-1.665a87.214 87.214 0 0 0-5.067-7.904c-3.823 1.803-6.681 5.328-7.568 9.569zM12.797 2.734c.378.506 2.86 3.886 5.099 8 4.86-1.821 6.917-4.587 7.163-4.937a13.658 13.658 0 0 0-12.262-3.064zm13.782 4.644c-.288.39-2.578 3.326-7.631 5.389a42.084 42.084 0 0 1 1.201 2.685c4.547-.572 9.066.345 9.516.44a13.599 13.599 0 0 0-3.086-8.513z"/>
    </symbol>
    <symbol id="icon-three" viewBox="0 0 45 32">
      <path d="M11.758.29c1.956 0 3.641.451 5.056 1.354 1.444.903 2.633 2.122 3.566 3.656.933 1.505 1.625 3.19 2.076 5.056.481 1.866.722 3.777.722 5.733a23.23 23.23 0 0 1-.722 5.733c-.451 1.866-1.144 3.566-2.076 5.101-.933 1.505-2.122 2.708-3.566 3.611-1.414.903-3.1 1.354-5.056 1.354-1.926 0-3.611-.451-5.056-1.354s-2.633-2.106-3.566-3.611c-.933-1.535-1.64-3.235-2.122-5.101a24.693 24.693 0 0 1-.677-5.733c0-1.956.226-3.867.677-5.733C1.495 8.49 2.203 6.805 3.136 5.3c.933-1.535 2.122-2.753 3.566-3.656S9.832.29 11.758.29zm0 3.972c-1.234 0-2.332.346-3.295 1.038-.933.662-1.715 1.565-2.347 2.708-.632 1.113-1.113 2.377-1.444 3.792-.331 1.384-.497 2.814-.497 4.288s.165 2.919.497 4.333a15.028 15.028 0 0 0 1.444 3.792c.632 1.113 1.414 2.016 2.347 2.708.963.662 2.061.993 3.295.993s2.317-.331 3.25-.993c.963-.692 1.76-1.595 2.392-2.708a14.999 14.999 0 0 0 1.444-3.792c.331-1.414.497-2.859.497-4.333s-.166-2.904-.497-4.288c-.331-1.414-.812-2.678-1.444-3.792-.632-1.143-1.429-2.046-2.392-2.708-.933-.692-2.016-1.038-3.25-1.038zM35.14.29c1.986 0 3.747.376 5.281 1.128 1.565.752 2.784 1.791 3.656 3.115.903 1.294 1.354 2.784 1.354 4.469 0 1.354-.346 2.498-1.038 3.431-.662.933-1.459 1.67-2.392 2.212s-1.79.918-2.573 1.128c.782.211 1.64.632 2.573 1.264.933.602 1.73 1.399 2.392 2.392.692.993 1.038 2.167 1.038 3.521 0 1.685-.436 3.205-1.309 4.559-.843 1.354-2.031 2.422-3.566 3.205s-3.295 1.174-5.281 1.174c-1.775 0-3.37-.301-4.785-.903-1.384-.602-2.468-1.264-3.25-1.986V24.53c.692.482 1.414 1.008 2.167 1.58s1.61 1.068 2.573 1.49 2.091.632 3.385.632c1.806 0 3.295-.482 4.469-1.444s1.76-2.317 1.76-4.063c0-.993-.316-1.881-.948-2.663-.602-.782-1.399-1.399-2.392-1.851a7.252 7.252 0 0 0-3.115-.677h-2.708v-3.611h2.708c1.896 0 3.446-.406 4.649-1.219 1.204-.843 1.805-2.001 1.805-3.476 0-1.053-.301-1.971-.903-2.753s-1.399-1.399-2.392-1.851c-.993-.451-2.091-.677-3.295-.677-1.565 0-2.889.346-3.972 1.038a16.461 16.461 0 0 0-2.889 2.302V2.818c.782-.722 1.791-1.324 3.024-1.806A11.074 11.074 0 0 1 35.138.29z"/>
    </symbol>
    <symbol id="icon-twit" viewBox="0 0 40 32">
      <path fill="#26a7de" style="fill:var(--color2, #26a7de)" d="M40 3.744c-1.379.591-2.956.985-4.729 1.182 1.576-.985 2.956-2.562 3.547-4.335-1.576.985-3.35 1.576-5.123 1.97C32.316.985 30.148-.001 27.784-.001c-4.532 0-8.079 3.547-8.079 7.882 0 .591 0 1.182.197 1.773-6.7-.394-12.611-3.547-16.749-8.276a7.106 7.106 0 0 0-1.182 3.941c0 2.759 1.379 5.123 3.547 6.699-1.379 0-2.562-.394-3.744-.985v.197c0 3.941 2.759 7.094 6.502 7.882-.591.197-1.379.197-2.167.197-.591 0-.985 0-1.576-.197.985 3.153 3.941 5.517 7.488 5.517-2.759 2.167-6.305 3.35-10.049 3.35-.591 0-1.379 0-1.97-.197 3.547 2.365 7.882 3.547 12.414 3.547 14.778 0 23.054-12.217 23.054-22.66v-.985c2.167-.985 3.547-2.365 4.532-3.941z"/>
    </symbol>
    <symbol id="icon-two" viewBox="0 0 46 32">
      <path d="M11.758.29c1.956 0 3.641.451 5.056 1.354 1.444.903 2.633 2.122 3.566 3.656.933 1.505 1.625 3.19 2.076 5.056.481 1.866.722 3.777.722 5.733a23.23 23.23 0 0 1-.722 5.733c-.451 1.866-1.144 3.566-2.076 5.101-.933 1.505-2.122 2.708-3.566 3.611-1.414.903-3.1 1.354-5.056 1.354-1.926 0-3.611-.451-5.056-1.354s-2.633-2.106-3.566-3.611c-.933-1.535-1.64-3.235-2.122-5.101a24.693 24.693 0 0 1-.677-5.733c0-1.956.226-3.867.677-5.733C1.495 8.49 2.203 6.805 3.136 5.3c.933-1.535 2.122-2.753 3.566-3.656S9.832.29 11.758.29zm0 3.972c-1.234 0-2.332.346-3.295 1.038-.933.662-1.715 1.565-2.347 2.708-.632 1.113-1.113 2.377-1.444 3.792-.331 1.384-.497 2.814-.497 4.288s.165 2.919.497 4.333a15.028 15.028 0 0 0 1.444 3.792c.632 1.113 1.414 2.016 2.347 2.708.963.662 2.061.993 3.295.993s2.317-.331 3.25-.993c.963-.692 1.76-1.595 2.392-2.708a14.999 14.999 0 0 0 1.444-3.792c.331-1.414.497-2.859.497-4.333s-.166-2.904-.497-4.288c-.331-1.414-.812-2.678-1.444-3.792-.632-1.143-1.429-2.046-2.392-2.708-.933-.692-2.016-1.038-3.25-1.038zM35.592.29c1.986 0 3.731.361 5.236 1.083s2.678 1.76 3.521 3.115c.843 1.324 1.264 2.904 1.264 4.74 0 1.956-.497 3.822-1.489 5.597-.993 1.745-2.407 3.611-4.243 5.597a1354.937 1354.937 0 0 1-6.455 7.042h12.413v3.747H26.881v-1.625a527.144 527.144 0 0 1 7.944-8.712c2.227-2.407 3.942-4.469 5.146-6.184s1.805-3.235 1.805-4.559c0-1.956-.647-3.415-1.941-4.378-1.264-.993-2.799-1.49-4.604-1.49-1.475 0-2.874.376-4.198 1.128-1.294.722-2.377 1.475-3.25 2.257V3.405c.782-.722 1.851-1.414 3.205-2.076C32.342.637 33.877.291 35.592.291z"/>
    </symbol>
    <symbol id="icon-visual" viewBox="0 0 32 32">
      <path d="m17.221 1.2 13.578 13.578 1.2-1.2L18.421 0l-1.2 1.2zM19.234 7.601a2.546 2.546 0 0 0-2.803-.54L7.008 11.1a4.227 4.227 0 0 0-2.352 2.56 467.62 467.62 0 0 0-2.981 9.346A130.81 130.81 0 0 0 .5 27.045c-.148.552-.27 1.036-.355 1.427-.079.364-.144.723-.144.981v.352l2.194 2.194h.352c.259 0 .617-.065.981-.144.391-.085.875-.206 1.427-.355 1.105-.297 2.51-.709 4.039-1.175a467.62 467.62 0 0 0 9.346-2.981 4.23 4.23 0 0 0 2.56-2.352l4.039-9.423a2.546 2.546 0 0 0-.54-2.803l-5.164-5.164zm-2.135 1.021a.848.848 0 0 1 .934.18l5.164 5.164a.848.848 0 0 1 .18.934l-4.039 9.424a2.528 2.528 0 0 1-1.531 1.408 467.251 467.251 0 0 1-9.31 2.97c-1.522.464-2.906.87-3.984 1.16a28.774 28.774 0 0 1-1.554.378l8.671-8.671a2.547 2.547 0 0 0 2.898-4.098 2.546 2.546 0 0 0-4.098 2.898l-8.672 8.672c.012-.063.027-.132.043-.207.077-.353.19-.808.335-1.347a129.78 129.78 0 0 1 1.16-3.984 467.251 467.251 0 0 1 2.97-9.31 2.528 2.528 0 0 1 1.408-1.531l9.424-4.039z"/>
    </symbol>
    <symbol id="icon-menu" viewBox="0 0 52 32">
<path fill="#c4c4c4" style="fill: var(--color1, #c4c4c4)" d="M0 0h52.364v8.727h-52.364v-8.727z"></path>
<path fill="#c4c4c4" style="fill: var(--color1, #c4c4c4)" d="M14.545 23.273h37.818v8.727h-37.818v-8.727z"></path>
</symbol>
  </defs>
</svg>
